<?xml version="1.0" standalone="no"?><!DOCTYPE svg PUBLIC "-//W3C//DTD SVG 1.1//EN" "http://www.w3.org/Graphics/SVG/1.1/DTD/svg11.dtd"><svg class="icon" width="200px" height="191.94px" viewBox="0 0 1067 1024" version="1.1" xmlns="http://www.w3.org/2000/svg"><path fill="#5cb85c" d="M367.036145 595.893976h86.978313v71.556626H367.036145zM367.036145 409.6h82.043373v70.322892H367.036145z"  /><path fill="#5cb85c" d="M523.720482 150.515663c-212.20241 0-384.308434 172.106024-384.308434 384.308433S311.518072 919.13253 523.720482 919.13253s384.308434-172.106024 384.308434-384.308434c0-212.819277-172.106024-384.308434-384.308434-384.308433z m-40.096386 568.751807h-30.226506v-23.440964h-86.361445v31.460241h-30.226506V380.607229h43.180722c4.93494-16.655422 8.636145-32.077108 10.486747-46.26506l32.693976 4.318072c-4.93494 15.421687-9.253012 29.609639-14.187951 41.946988h69.706024v146.19759h-30.226506v-18.506024H367.036145V567.518072h117.204819v151.749398z m227.624097-90.062651c0 25.291566-11.103614 38.245783-33.927711 40.096386-12.337349 0-24.057831 0-35.161446-0.616868-1.850602-10.486747-3.701205-21.590361-6.168675-32.077108 11.720482 1.850602 20.973494 2.46747 27.759037 2.46747 11.720482 0.616867 17.272289-4.93494 17.272289-16.655422v-185.060241h-55.518073v299.797591h-30.843373V436.742169h-55.518072v239.344578h-30.226506V406.515663h85.744578v-74.024097h30.843373v74.024097h85.744579V629.204819z"  /></svg>