<?xml version="1.0" standalone="no"?><!DOCTYPE svg PUBLIC "-//W3C//DTD SVG 1.1//EN" "http://www.w3.org/Graphics/SVG/1.1/DTD/svg11.dtd"><svg class="icon" width="200px" height="200.00px" viewBox="0 0 1024 1024" version="1.1" xmlns="http://www.w3.org/2000/svg"><path fill="#5cb85c" d="M349.866667 203.093333c0 59.733333 32.426667 114.346667 83.626666 145.066667 51.2 29.013333 114.346667 29.013333 167.253334 0 51.2-29.013333 83.626667-85.333333 83.626666-145.066667s-32.426667-114.346667-83.626666-145.066666c-51.2-29.013333-114.346667-29.013333-167.253334 0a168.277333 168.277333 0 0 0-83.626666 145.066666z m0 0M706.56 445.44l46.08-39.253333c1.706667 1.706667 5.12 1.706667 6.826667 0l29.013333-25.6c1.706667-1.706667 1.706667-3.413333 1.706667-5.12 0-1.706667-1.706667-3.413333-3.413334-3.413334s-3.413333 0-5.12 1.706667L750.933333 397.653333c-1.706667 1.706667-1.706667 3.413333-1.706666 5.12L704.853333 443.733333l1.706667 1.706667zM744.106667 517.12l46.08-39.253333c1.706667 1.706667 5.12 1.706667 6.826666 0l29.013334-25.6c1.706667-1.706667 1.706667-3.413333 1.706666-5.12 0-1.706667-1.706667-3.413333-3.413333-3.413334s-3.413333 0-5.12 1.706667l-29.013333 25.6c-1.706667 1.706667-1.706667 3.413333-1.706667 5.12l-46.08 39.253333 1.706667 1.706667zM329.386667 443.733333l-46.08-39.253333c1.706667-1.706667 0-5.12-1.706667-5.12l-29.013333-25.6c-1.706667-1.706667-3.413333-1.706667-5.12-1.706667-1.706667 0-3.413333 1.706667-3.413334 3.413334s0 3.413333 1.706667 5.12l29.013333 25.6c1.706667 1.706667 3.413333 1.706667 6.826667 0l46.08 39.253333 1.706667-1.706667zM291.84 513.706667l-46.08-39.253334c1.706667-1.706667 0-5.12-1.706667-5.12L216.746667 443.733333c-1.706667-1.706667-3.413333-1.706667-5.12-1.706666-1.706667 0-3.413333 1.706667-3.413334 3.413333s0 3.413333 1.706667 5.12l29.013333 25.6c1.706667 1.706667 3.413333 1.706667 6.826667 0l46.08 39.253333v-1.706666zM884.053333 698.026667l-75.093333-59.733334-61.44-126.293333-52.906667-104.106667c-3.413333-5.12-6.826667-8.533333-11.946666-11.946666-6.826667-6.826667-17.066667-10.24-27.306667-10.24H373.76c-17.066667-1.706667-35.84 6.826667-44.373333 22.186666L276.48 512l-63.146667 124.586667-75.093333 59.733333c-17.066667 13.653333-22.186667 35.84-15.36 56.32 6.826667 20.48 25.6 34.133333 47.786667 34.133333 11.946667 0 22.186667-3.413333 30.72-10.24l83.626666-66.56c5.12-5.12 10.24-10.24 13.653334-17.066666l29.013333-58.026667-5.12 151.893333-107.52 112.64c-15.36 15.36-18.773333 37.546667-10.24 56.32s27.306667 32.426667 47.786667 32.426667H443.733333c-13.653333-15.36-22.186667-37.546667-22.186666-58.026667 1.706667-51.2 44.373333-92.16 95.573333-92.16H597.333333c8.533333 0 17.066667 6.826667 17.066667 17.066667 0 8.533333-6.826667 17.066667-17.066667 17.066667h-80.213333c-22.186667-1.706667-42.666667 8.533333-54.613333 27.306666-11.946667 18.773333-11.946667 42.666667 0 61.44s32.426667 29.013333 54.613333 27.306667h264.533333c20.48 0 39.253333-11.946667 47.786667-32.426667 8.533333-18.773333 3.413333-40.96-10.24-56.32l-107.52-112.64-5.12-134.826666 20.48 40.96c3.413333 6.826667 8.533333 11.946667 13.653333 17.066666l83.626667 66.56c8.533333 6.826667 20.48 11.946667 30.72 11.946667 20.48 0 39.253333-13.653333 47.786667-34.133333 5.12-20.48-1.706667-42.666667-18.773334-56.32z m-339.626666-23.893334h-3.413334c-25.6-34.133333-52.906667-8.533333-85.333333-18.773333-29.013333-8.533333-44.373333-30.72-47.786667-58.026667 0-1.706667-1.706667-13.653333 11.946667-6.826666 22.186667 6.826667 42.666667 0 68.266667 5.12 20.48 3.413333 39.253333 15.36 49.493333 54.613333-13.653333-13.653333-23.893333-22.186667-37.546667-29.013333-11.946667-6.826667-25.6-8.533333-40.96-11.946667-3.413333 0-1.706667 3.413333-1.706666 3.413333 18.773333 5.12 35.84 10.24 51.2 20.48 13.653333 8.533333 27.306667 22.186667 35.84 40.96 0-1.706667 1.706667 0 0 0z m56.32-75.093333c-18.773333 20.48-51.2 13.653333-54.613334 51.2l-3.413333 1.706667h-1.706667c0-15.36 3.413333-32.426667 11.946667-46.08 6.826667-13.653333 17.066667-25.6 29.013333-37.546667 1.706667 0 0-1.706667-1.706666-1.706667-10.24 8.533333-18.773333 17.066667-25.6 27.306667-6.826667 10.24-11.946667 22.186667-15.36 39.253333-8.533333-32.426667-1.706667-51.2 11.946666-61.44 17.066667-15.36 34.133333-18.773333 47.786667-34.133333 8.533333-10.24 10.24 0 11.946667 0 8.533333 18.773333 8.533333 40.96-10.24 61.44z" /></svg>