<?xml version="1.0" standalone="no"?><!DOCTYPE svg PUBLIC "-//W3C//DTD SVG 1.1//EN" "http://www.w3.org/Graphics/SVG/1.1/DTD/svg11.dtd"><svg class="icon" width="200px" height="200.00px" viewBox="0 0 1024 1024" version="1.1" xmlns="http://www.w3.org/2000/svg"><path d="M800.8 488.8h201.9c-3.2-71-20.5-138.1-49.4-198.6H776.9c14.1 61.4 22.4 128.4 23.9 198.6z" fill="#F79633" /><path d="M672 143C627.6 58.4 570.4 8.7 512.6 0.5v250h202.2C702.9 211 688.6 174.6 672 143zM725.7 290.2h-213v198.6h238.5c-1.8-70.9-10.7-138.1-25.5-198.6z" fill="#54A8B9" /><path d="M766.9 250.5h165.3C869 143.3 768.2 61.2 648 22.8c25.6 26.8 48.4 59.8 68 97.2 20.2 38.7 37.3 82.6 50.9 130.5zM715.9 904.4c-19.6 37.4-42.3 70.4-68 97.2C771 962.3 873.8 877.2 936.6 766H768.8c-13.8 50.9-31.5 97.5-52.9 138.4zM800.9 528.7c-1 69.6-8.5 136.3-22.1 197.5h178.1c27.5-60.5 43.7-127.2 45.9-197.5H800.9z" fill="#F79633" /><path d="M751.3 528.7H512.6v197.5h215c14.2-60.5 22.5-127.2 23.7-197.5zM717.4 766H512.6v258c57.8-8.3 114.9-58 159.4-142.6 17.7-33.8 32.9-72.7 45.4-115.4z" fill="#54A8B9" /><path d="M441.6 1023.6V0h-89.2v50.3c-100.4 5.2-175.9 32.3-226.6 81-50.8 48.8-76.2 109.4-76.2 182 0 53.1 12.7 98.1 38 135 25.2 36.9 55 63.7 89.5 80.4 34.5 16.8 93 36.5 175.3 59.4v216.1c-28.5-13.8-49-29.9-61.5-47.7-12.5-18-22.3-47.1-29.6-87.4L14.2 697.8c7.4 40.7 18.3 75.4 33 104.3 14.6 28.6 35.6 55.5 62.7 80.3 27.1 24.8 59.3 44.4 96.6 58.4s85.9 23.7 145.9 29.1v53.7h89.2zM298.2 331.8c-10.3-13.4-15.6-29-15.6-47 0-17.2 5.2-32.2 15.3-44.9 10.2-12.6 28.3-23.2 54.5-31.9v157.2c-25.9-9-43.9-20.1-54.2-33.4z" fill="#626262" /></svg>