<?xml version="1.0" standalone="no"?><!DOCTYPE svg PUBLIC "-//W3C//DTD SVG 1.1//EN" "http://www.w3.org/Graphics/SVG/1.1/DTD/svg11.dtd"><svg class="icon" width="200px" height="198.83px" viewBox="0 0 1030 1024" version="1.1" xmlns="http://www.w3.org/2000/svg"><path fill="#5cb85c" d="M576 0L44.8 524.8c-25.6 32-38.4 70.4-44.8 108.8 0 38.4 12.8 76.8 44.8 108.8l236.8 236.8c38.4 32 76.8 44.8 115.2 44.8 38.4 0 76.8-12.8 108.8-44.8L1030.4 454.4V0H576zM966.4 428.8l-512 512c-32 32-89.6 32-121.6 0l-243.2-243.2c-19.2-19.2-25.6-38.4-25.6-64s6.4-44.8 25.6-64l512-512H966.4v371.2z m-217.6 0c76.8 0 140.8-64 140.8-140.8s-64-140.8-140.8-140.8c-76.8 0-140.8 64-140.8 140.8s64 140.8 140.8 140.8z m0-217.6c44.8 0 76.8 32 76.8 76.8s-32 76.8-76.8 76.8-76.8-32-76.8-76.8 38.4-76.8 76.8-76.8z" /></svg>