<?xml version="1.0" standalone="no"?><!DOCTYPE svg PUBLIC "-//W3C//DTD SVG 1.1//EN" "http://www.w3.org/Graphics/SVG/1.1/DTD/svg11.dtd"><svg class="icon" width="200px" height="200.00px" viewBox="0 0 1024 1024" version="1.1" xmlns="http://www.w3.org/2000/svg"><path fill="#5cb85c" d="M505.065054 563.731198c-62.117756 0-117.974925-26.329668-157.283186-74.141604-37.172621-45.213761-57.644885-106.993826-57.644885-173.960007 0-30.685883 15.945157-133.299959 30.485315-160.974251 14.531971-27.65792 34.047444-45.908586 59.662845-55.796794 22.694885-8.760524 48.126091-10.555403 79.32772-10.555403 8.834202 0 17.978467 0.141216 27.659967 0.291642 4.78805 0.073678 9.69071 0.149403 14.71105 0.210801 9.18008 0.110517 18.026562 0.12689 26.582425 0.14224 35.410488 0.063445 65.991993 0.118704 91.947132 7.080256 30.643927 8.220219 52.538587 25.930579 66.933435 54.144154 13.834076 27.112498 31.930223 110.343107 32.546254 165.228135 0.811482 72.443939-25.201985 140.769071-71.369468 187.457416C609.80556 542.112832 558.822398 563.731198 505.065054 563.731198zM459.611839 129.23641c-55.990199 0-82.642209 6.1777-102.755292 44.457538-9.598612 18.269086-25.78834 112.37437-25.78834 141.93564 0 120.042004 73.175603 207.16834 173.995823 207.16834 43.35646 0 82.932828-16.847713 114.451682-48.721655 38.531572-38.965453 60.233849-96.633874 59.544141-158.217465-0.561795-50.131771-17.896602-127.131469-28.077475-147.083893-18.952654-37.144992-51.248198-38.766932-122.491799-38.894845-8.659217-0.01535-17.613146-0.031722-27.004027-0.145309-5.067412-0.061398-10.017144-0.138146-14.85022-0.212848C477.120608 129.375579 468.12984 129.23641 459.611839 129.23641zM683.898045 310.296115c-154.462954-60.190871-366.567723-5.924943-368.692107-5.369288l-10.348696-39.60195c2.303462-0.601704 57.282634-14.81645 133.175115-21.276582 102.70208-8.744151 190.425004 0.713244 260.728186 28.109198L683.898045 310.296115zM249.322415 936.033529c-67.855434 0-126.487809-2.625804-156.774603-34.896788-14.069437-14.989389-20.426215-34.830273-18.894326-58.969043l0.127913-2.004657 0.514723-1.941212c0.808412-3.048429 20.509103-75.508741 83.179444-148.363026 36.852326-42.839691 81.005942-76.982302 131.233903-101.476159 62.457494-30.458709 134.335545-45.901423 213.636658-45.901423 5.436826 0 10.985192 0.072655 16.495696 0.217964 81.650625 2.140757 155.053402 18.857487 218.168881 49.683563 50.870598 24.846898 95.112218 58.809407 131.497916 100.945063 62.059428 71.868841 79.626525 142.359288 80.343863 145.32483l0.503467 2.083451 0.062422 2.142803c0.655939 22.8668-6.16849 41.827641-20.284999 56.353472-32.975019 33.93488-97.601922 36.559661-185.290053 36.559661-0.005117 0-0.00307 0-0.008186 0-5.126764 0-10.308787-0.007163-15.539928-0.01535-5.308913-0.007163-10.667967-0.01535-16.066931-0.01535L310.810838 935.76133c-10.747785 0-21.457708 0.070608-31.813566 0.140193C268.716114 935.969061 259.004939 936.033529 249.322415 936.033529zM114.399493 846.868767c-0.527003 15.282055 4.264117 22.282492 7.994068 26.25599 19.031449 20.276812 75.496461 21.976524 126.928854 21.976524 9.546424 0 19.191084-0.064468 29.402657-0.132006 10.423397-0.068562 21.200858-0.141216 32.084743-0.141216l401.417439 0c5.418406 0 10.796904 0.008186 16.125259 0.01535 5.361101 0.00921 10.670014 0.022513 15.931854 0.01535 58.945507 0 132.081201-0.060375 155.4924-24.153096 3.759627-3.868097 8.650007-10.55438 8.749268-24.411993-3.229554-11.356652-21.553898-69.563332-72.262814-127.671775-75.058486-86.009909-182.213995-131.431402-318.494844-135.00581-5.15337-0.135076-10.342556-0.203638-15.422248-0.203638-131.553175 0-236.758262 44.348044-312.692698 131.812071C137.869021 774.870989 117.830639 835.539744 114.399493 846.868767z" /></svg>