<?xml version="1.0" standalone="no"?><!DOCTYPE svg PUBLIC "-//W3C//DTD SVG 1.1//EN" "http://www.w3.org/Graphics/SVG/1.1/DTD/svg11.dtd"><svg class="icon" width="200px" height="200.00px" viewBox="0 0 1024 1024" version="1.1" xmlns="http://www.w3.org/2000/svg"><path fill="#5cb85c" d="M918.3 162.8c-3-20.5-13.8-39.2-29.8-51.5-3.8-3.4-8.3-5.9-13-7.2-30.4-14.7-69-1.2-88.2 32.6-23.6 47.1-52.2 86.2-84.9 116.4-32.6 30-90.3 79.6-181.5 155.8H129.5l-5.5 15c-14.7 40.3-16.4 83.6-16.4 112.7 0 144.5 85.3 276.2 217.3 335.6l4.5 2h321.5l4.5-2c132-59.4 217.3-191.1 217.3-335.6 0-35.3-5.3-72.7-15.9-111l-4.6-16.8H750.4c8.5-9.7 16-18.4 22.5-26 13.7-15.8 23.7-27.4 29.4-33.3 18.1-15.7 42.6-49 86.4-108.5l15.3-20.8c12.3-16.2 17.3-36.6 14.3-57.4z m-50.9 30.1l-15.5 21c-39.7 53.9-66 89.5-80.1 101.5l-1.5 1.4c-6.6 6.7-16.7 18.4-32 36.1-14 16.3-32.4 37.4-55.6 63.6l-33.8 38.1h167.9c6.6 28.4 10 55.9 10 82 0 124.9-72.8 238.9-185.9 291.8H339.2c-113.1-52.9-185.9-166.9-185.9-291.8 0-33 2.9-59.6 8.9-82h375.2l6.4-5.3c96.8-80.8 155.2-130.9 189.6-162.6 36.7-33.9 68.6-77.5 94.2-128.4 5.9-10.3 19.5-17.9 28.7-12.5l5.3 3h0.3c5.9 5.1 9.9 12.5 11.1 20.7 1.3 8.6-0.7 16.9-5.6 23.4zM616 880.9H361.3c-12 0-24.1 9-24.1 24.1 0 12 9 24.1 24.1 24.1H616c12 0 24.1-9 24.1-24.1-0.2-15.1-9.1-24.1-24.1-24.1z"  /><path fill="#5cb85c" d="M268.5 305.2c62.1 26.9 124-21.7 169.8 53.9h8.1c2.7 0 2.7-2.7 2.7-2.7-16.3-35-40.4-64.8-72.7-89-26.9-21.7-62.1-37.7-99.8-51.2-2.7 0-2.7-5.4 2.7-5.4 29.6 8.1 56.7 16.3 80.8 32.3 26.9 16.3 48.5 37.7 72.7 67.5-13.5-80.8-48.5-110.6-89-121.2-51.2-16.3-94.4-5.4-137.5-24.2-26.9-13.6-24.2 10.8-24.2 13.5 0.1 53.8 27.2 102.4 86.4 126.5z"  /></svg>